<?xml version="1.0" encoding="utf-8"?>
<!-- Generator: Adobe Illustrator 17.1.0, SVG Export Plug-In . SVG Version: 6.00 Build 0)  -->
<!DOCTYPE svg PUBLIC "-//W3C//DTD SVG 1.1//EN" "http://www.w3.org/Graphics/SVG/1.1/DTD/svg11.dtd">
<svg version="1.1" id="Layer_1" xmlns="http://www.w3.org/2000/svg" xmlns:xlink="http://www.w3.org/1999/xlink" x="0px" y="0px"
	 width="1000px" height="1000px" viewBox="0 0 1000 1000" enable-background="new 0 0 1000 1000" xml:space="preserve">
<g>
	<path fill="#211915" d="M306.855,132.431H138.104v168.751h168.751V132.431z M241.855,236.182h-38.751v-38.751h38.751V236.182z"/>
	<path fill="#211915" d="M688.287,301.182h168.751V132.431H688.287V301.182z M753.287,197.431h38.751v38.751h-38.751V197.431z"/>
	<path fill="#211915" d="M306.855,691.149H138.104V859.9h168.751V691.149z M241.855,794.9h-38.751v-38.751h38.751V794.9z"/>
	<polygon fill="#211915" points="274.356,540.734 274.356,474.068 207.689,474.068 207.689,407.401 141.022,407.401 
		141.022,474.068 141.022,540.734 207.689,540.734 	"/>
	<rect x="474.865" y="340.734" fill="#211915" width="66.667" height="66.667"/>
	<path fill="#211915" d="M720.787,941.752v-50.324c31.87-7.396,61.762-21.389,88.032-41.292l123.012,123.126l45.982-45.94
		L854.802,804.196c14.503-19.106,25.891-40.127,33.871-62.443h74.585v-66.667v-66.667v-66.666h-66.667v66.666v1.9
		c-5.446-24.214-14.687-47.311-27.433-68.566h27.433v-66.667h-49.258v-68.518h49.258v68.518h66.667v-75h-0.834V27.044H582.901
		v116.297h-40.067h-1.303h-64.06V76.674h-65.229v-49.63H32.719v379.523h379.523v-196.56h63.926v65.363h65.363v65.363h41.37v65.833
		h91.963v20.784c-2.521-0.081-5.046-0.136-7.58-0.137h-0.11c-52.064,0-101.54,16.823-142.246,47.872h-50.064v-1.018v-66.667h-66.667
		v66.667h-66.667v66.666h66.667h57.625c-22.014,36.291-33.792,78.007-33.812,121.537c0,0.037,0.001,0.073,0.001,0.109h-19.77
		v-80.561h-71.22v-40.067h-66.667v40.067H141.022v-41.085H82v41.085H32.719v379.523h379.523v-19.59h62.623v-66.667h66.667h0v66.667
		h66.667v-51.635c14.907,3.833,30.271,6.212,45.923,7.063v44.572H720.787z M347.242,341.567H97.719V92.044h249.523V341.567z
		 M829.924,492.636c-6.168-5.92-12.605-11.463-19.281-16.624h19.281V492.636z M787.558,542.11
		c7.736,7.743,14.625,16.105,20.64,24.966c8.714,12.836,15.579,26.726,20.448,41.343c5.728,17.195,8.706,35.388,8.697,54.04
		c-0.002,4.247-0.165,8.457-0.475,12.627c-1.775,23.929-8.529,46.492-19.215,66.667c-2.881,5.439-6.038,10.709-9.471,15.78
		c-0.355,0.525-0.723,1.042-1.085,1.563c-12.082,17.424-27.322,32.501-44.897,44.378c-25.165,17.004-55.1,27.45-87.335,28.891
		c-2.549,0.114-5.11,0.182-7.686,0.182v32.499l-0.08-32.499c-49.682-0.023-94.445-21.449-125.567-55.531
		c-24.962-27.336-41.146-62.814-44.048-101.93c-0.313-4.221-0.475-8.484-0.473-12.784c0.021-47.065,19.26-89.724,50.282-120.549
		c17.126-17.017,37.844-30.425,60.905-38.977c18.406-6.825,38.302-10.562,59.058-10.562
		C712.709,492.235,755.433,509.955,787.558,542.11z M542.835,274.068v-64.061h40.067v64.061H542.835z M647.901,341.567V92.044
		h249.522v249.523H647.901z M741.531,406.567h39.135v49.74c-12.506-6.911-25.593-12.655-39.135-17.151V406.567z M347.242,896.343
		H97.719V646.819h249.523V896.343z M412.242,808.418v-79.373h29.317c8.45,28.742,22.384,55.625,41.273,79.373H412.242z"/>
	<path fill="#211915" d="M667.177,541.752v39.638c24.154,0,45.858,10.642,60.709,27.468c12.607,14.283,20.28,33.019,20.28,53.522h65
		c0-80.499-65.49-145.99-145.989-145.99V541.752z"/>
</g>
</svg>
