<?xml version="1.0" encoding="utf-8"?>
<!-- Generator: Adobe Illustrator 15.0.0, SVG Export Plug-In . SVG Version: 6.00 Build 0)  -->
<!DOCTYPE svg PUBLIC "-//W3C//DTD SVG 1.1//EN" "http://www.w3.org/Graphics/SVG/1.1/DTD/svg11.dtd">
<svg version="1.1" id="Layer_1" xmlns="http://www.w3.org/2000/svg" xmlns:xlink="http://www.w3.org/1999/xlink" x="0px" y="0px"
	 width="64px" height="64px" viewBox="0 0 64 64" enable-background="new 0 0 64 64" xml:space="preserve">
<g>
	<g>
		<g>
			<path d="M9.273,57.835c-0.462,0-0.892-0.279-1.071-0.726c-0.213-0.528-0.007-1.134,0.483-1.425
				c5.475-3.241,5.648-8.973,4.75-13.368C6.925,37.672,3.558,31,4.411,24.383C5.75,13.997,17.141,6.165,30.907,6.165
				c1.242,0,2.502,0.064,3.749,0.192c8.726,0.886,16.362,4.714,20.956,10.502c3.192,4.026,4.567,8.589,3.974,13.195
				c-1.339,10.385-12.73,18.218-26.498,18.218l0,0c-1.241,0-2.502-0.063-3.747-0.191c-0.829-0.084-1.679-0.201-2.54-0.352
				c-4.264,6.997-16.717,9.95-17.266,10.076C9.447,57.826,9.36,57.835,9.273,57.835z"/>
		</g>
	</g>
</g>
</svg>
