<?xml version="1.0" encoding="utf-8"?>
<!-- Generator: Adobe Illustrator 16.0.4, SVG Export Plug-In . SVG Version: 6.00 Build 0)  -->
<!DOCTYPE svg PUBLIC "-//W3C//DTD SVG 1.1//EN" "http://www.w3.org/Graphics/SVG/1.1/DTD/svg11.dtd">
<svg version="1.1" id="Layer_1" xmlns="http://www.w3.org/2000/svg" xmlns:xlink="http://www.w3.org/1999/xlink" x="0px" y="0px"
	 width="32px" height="32px" viewBox="0 0 32 32" enable-background="new 0 0 32 32" xml:space="preserve">
<g>
	<path d="M10.709,19.562l-4.608-3.875l4.627-3.974c1.005-0.863,1.12-2.377,0.258-3.381c-0.863-1.003-2.379-1.12-3.383-0.256
		l-6.768,5.812C0.302,14.348-0.004,15.018,0,15.721c0.004,0.704,0.316,1.37,0.854,1.823l6.769,5.69
		c0.449,0.377,0.997,0.562,1.541,0.562c0.684,0,1.362-0.291,1.836-0.854C11.852,21.928,11.723,20.415,10.709,19.562z"/>
	<path d="M31.105,13.889l-6.768-5.812c-1.005-0.863-2.52-0.746-3.382,0.258c-0.86,1.004-0.747,2.517,0.258,3.381l4.627,3.974
		l-4.606,3.875c-1.014,0.853-1.146,2.363-0.291,3.379c0.474,0.562,1.149,0.854,1.836,0.854c0.544,0,1.092-0.187,1.541-0.562
		l6.769-5.69c0.538-0.453,0.851-1.119,0.854-1.823C31.945,15.018,31.641,14.348,31.105,13.889z"/>
	<path d="M18.104,3.793c-1.299-0.25-2.559,0.6-2.81,1.899l-3.951,20.421c-0.252,1.3,0.598,2.559,1.898,2.81
		c0.153,0.029,0.307,0.044,0.458,0.044c1.126,0,2.129-0.796,2.352-1.941l3.951-20.42C20.255,5.304,19.404,4.045,18.104,3.793z"/>
</g>
</svg>
