<?xml version="1.0" encoding="utf-8"?>
<!-- Generator: Adobe Illustrator 16.0.0, SVG Export Plug-In . SVG Version: 6.00 Build 0)  -->
<!DOCTYPE svg PUBLIC "-//W3C//DTD SVG 1.1//EN" "http://www.w3.org/Graphics/SVG/1.1/DTD/svg11.dtd">
<svg version="1.1" id="Layer_12" xmlns="http://www.w3.org/2000/svg" xmlns:xlink="http://www.w3.org/1999/xlink" x="0px" y="0px"
	 width="100px" height="100px" viewBox="0 0 100 100" enable-background="new 0 0 100 100" xml:space="preserve">
<path d="M73.361,90.414c0.104,0.714-0.313,1.401-0.996,1.636c-2.648,0.912-5.366,1.576-8.076,1.974
	c-2.157,0.316-4.349,0.477-6.512,0.477h-0.002C35.889,94.499,16.983,78.142,13.8,56.454c-1.726-11.76,1.232-23.488,8.329-33.024
	c7.096-9.536,17.48-15.738,29.241-17.464c2.714-0.398,5.536-0.538,8.303-0.429c0.721,0.029,1.318,0.567,1.424,1.281
	c0.104,0.714-0.313,1.401-0.996,1.636C41.271,14.94,29.705,33.966,32.6,53.696c2.895,19.729,19.438,34.632,39.338,35.437
	C72.658,89.162,73.257,89.7,73.361,90.414z M86.606,41.441c-0.201-0.618-0.777-1.036-1.427-1.036H73.92l-3.479-10.708
	c-0.201-0.617-0.777-1.036-1.427-1.036s-1.226,0.419-1.427,1.036l-3.479,10.708H52.85c-0.649,0-1.226,0.418-1.427,1.036
	c-0.2,0.618,0.02,1.295,0.545,1.678l9.108,6.618l-3.479,10.707c-0.2,0.618,0.02,1.296,0.545,1.678c0.525,0.381,1.238,0.381,1.764,0
	l9.108-6.617l9.108,6.617c0.263,0.19,0.572,0.286,0.882,0.286s0.619-0.096,0.882-0.286c0.525-0.382,0.745-1.06,0.545-1.678
	l-3.479-10.707l9.108-6.618C86.587,42.736,86.807,42.059,86.606,41.441z"/>
</svg>
