<?xml version="1.0" encoding="utf-8"?>
<!-- Generator: Adobe Illustrator 16.0.0, SVG Export Plug-In . SVG Version: 6.00 Build 0)  -->
<!DOCTYPE svg PUBLIC "-//W3C//DTD SVG 1.1//EN" "http://www.w3.org/Graphics/SVG/1.1/DTD/svg11.dtd">
<svg version="1.1" id="Layer_1" xmlns="http://www.w3.org/2000/svg" xmlns:xlink="http://www.w3.org/1999/xlink" x="0px" y="0px"
	 width="96px" height="96px" viewBox="0 0 96 96" enable-background="new 0 0 96 96" xml:space="preserve">
<path d="M93.353,85.687L57.749,50.163c8.553-12.164,7.424-29.111-3.444-39.98c-12.162-12.165-31.958-12.165-44.123,0
	c-12.165,12.164-12.165,31.958,0,44.122c10.868,10.872,27.814,11.997,39.98,3.441l35.523,35.607c2.118,2.117,5.548,2.117,7.667,0
	C95.472,91.234,95.472,87.805,93.353,85.687z M32.029,53.755c-12.018,0-21.762-9.741-21.762-21.758
	c0-12.02,9.744-21.762,21.762-21.762c12.014,0,21.758,9.742,21.758,21.762C53.787,44.014,44.043,53.755,32.029,53.755z"/>
</svg>
